<?xml version="1.0" encoding="utf-8"?>
<!-- Generator: Adobe Illustrator 18.1.1, SVG Export Plug-In . SVG Version: 6.00 Build 0)  -->
<!DOCTYPE svg PUBLIC "-//W3C//DTD SVG 1.1//EN" "http://www.w3.org/Graphics/SVG/1.1/DTD/svg11.dtd">
<svg version="1.1" id="Capa_1" xmlns="http://www.w3.org/2000/svg" xmlns:xlink="http://www.w3.org/1999/xlink" x="0px" y="0px"
	 viewBox="0 0 595.3 841.9" enable-background="new 0 0 595.3 841.9" xml:space="preserve">
<g>
	<g>
		<path fill="#67B0D1" d="M359.7,198.3c52.5,35.5,105.6,48.6,118.8,29.2s-18.7-64-71.1-99.5c-52.5-35.5-105.6-48.5-118.8-29.2
			C275.4,118.2,307.3,162.8,359.7,198.3z M391.3,193.2c-2.9,4.2-14.5,1.4-25.9-6.4s-18.4-17.5-15.5-21.7c2.9-4.2,14.5-1.4,25.9,6.4
			S394.2,188.9,391.3,193.2z M452.3,211.8c-2.9,4.2-14.5,1.4-25.9-6.4s-18.4-17.5-15.5-21.7c2.8-4.2,14.5-1.4,25.9,6.4
			S455.2,207.6,452.3,211.8z M374.4,133c2.9-4.2,14.5-1.4,25.9,6.4c11.4,7.8,18.3,17.5,15.5,21.7c-2.9,4.2-14.5,1.4-25.9-6.4
			C378.5,147,371.5,137.3,374.4,133z M313,113.4c2.9-4.2,14.5-1.4,25.9,6.4c11.4,7.8,18.4,17.5,15.5,21.7
			c-2.9,4.2-14.5,1.4-25.9-6.4C317.1,127.3,310.1,117.6,313,113.4z"/>
		<path fill="#67B0D1" d="M412.2,125c44.6,31.6,77.7,69.5,75.4,86.7c-0.4,2.6-0.5,2.6,1,0.6l9.9-13.9c9.3-13-19.5-49.5-61.8-82.2
			l43.7-55.7c2.1-2.6,3.2-5.9,3.2-9.2v-92.9c0-8.2-6.6-14.9-14.9-14.9s-14.9,6.6-14.9,14.9v87.7L413,98c-0.3,0.3-0.3,0.7-0.5,0.9
			c-44.9-29.3-88.9-44.2-98.1-31.1l-9.9,13.9c-1.5,2.1-1.5,2,0.9,0.7C320.8,74.7,367.5,93.3,412.2,125z"/>
		<path fill="#67B0D1" d="M554.8,401.7H40.3c-7.4,0-13.3,6-13.3,13.3c0,4.3,0,9.3,0,14.7c0,15.5,29.7,28.1,66.5,28.1H240
			c7.4,0,13.3,5.9,13.3,13.3v78.7c-6.7,0.6-12.2,6.8-12.2,14.6v51.3c0,7.9,5.4,14.1,12.2,14.6v53.8c0,7.4,6,13.3,13.3,13.3h48.7
			c7.4,0,13.3-6,13.3-13.3V471c0-7.3,6-13.3,13.3-13.3h159.7c36.8,0,66.5-12.5,66.5-28.1v-14.7C568.2,407.7,562.2,401.7,554.8,401.7
			z"/>
		<path fill="#67B0D1" d="M267.5,233.6c5.2-6.5,14.9-7.6,21.3-2.3c6.5,5.2,7.6,14.8,2.3,21.3l-28.7,35.8l60-0.1l68.5-24.9
			c7.9-2.9,16.7,1.2,19.5,9.1c2.9,7.9-1.2,16.6-9.1,19.5l-63,22.9l0.1,46.2h46.3c6.1,0,10.9,5.3,10.9,11.3c0,6-5,10.8-10.9,10.8
			c0,0,0,0-0.1,0l-52.2-0.2l0,0c-6.2,0-12.2,0-18-0.1l-10.2-0.1c-0.7,0-1.5-0.1-2.2-0.3c-145.9-5.1-145.9-53.4-145.9-53.4l64.9-37.3
			L267.5,233.6z"/>
		<path fill="#67B0D1" d="M106.1,217.7c7.1-3.2,14.4-1.7,20.9,2.7c3.6,2.4,7.2,5,10.8,7.5c1,0.7,1.9,0.7,3.1,0.1
			c2-1.1,4-2.2,6.1-3.1c11.7-5.5,22.3-3.2,34.6-7c4.1-1.3,32.1-27.1,44.5-18.8c13.6,9.1,12.9,25,6.9,37.2c-3.6,7.2-8.5,13.1-14.9,18
			c-2.2,1.7-4.3,3.3-6.5,5c-1.6,1.2,4.4,19.2,4.4,19.2l-65.6,39.4c-3.5-6.9-6.8-13.8-10.3-20.7c-7.5-15.2-14.6-30.5-23.9-44.7
			c-2.5-3.8-5.6-7.5-9-10.7C92,226.9,103.3,219,106.1,217.7z"/>
	</g>
</g>
</svg>
